# xmcd CD database file
#
# Track frame offsets:
#	183
#	11403
#	28513
#	50345
#	74753
#	92948
#	119930
#	134118
#	146058
#	170405
#	181888
#	192205
#	200155
#
# Disc length: 2886 seconds
#
# Revision: 1
# Processed by: cddbd v1.5PL3 Copyright (c) Steve Scherf et al.
# Submitted via: CDex 1.51
#
DISCID=ce0b440d
DTITLE=Lefthand Freddy and the Aces - Out On The Road
DYEAR=1996
DGENRE=Blues
TTITLE0=Out on The Road
TTITLE1=Lonely Man
TTITLE2=Run Here Babe
TTITLE3=Little Bit More Lovin'
TTITLE4=Try Me One More Time
TTITLE5=Some Changes Made
TTITLE6=Drinkin' Whiskey
TTITLE7=What's Wrong With Me
TTITLE8=Trouble In My Life
TTITLE9=Good For Bad Luck
TTITLE10=Guitar On My Mind
TTITLE11=One More Thing
TTITLE12=Cant't Get Enough
EXTD=YEAR: 1996
EXTT0=
EXTT1=
EXTT2=
EXTT3=
EXTT4=
EXTT5=
EXTT6=
EXTT7=
EXTT8=
EXTT9=
EXTT10=
EXTT11=
EXTT12=
PLAYORDER=
